<svg xmlns="http://www.w3.org/2000/svg" viewBox="0 0 960 700" width="960" height="700"><title>Business overview</title><rect x="6" y="6" width="948" height="688" rx="28" fill="#c8ced6"/><rect x="12" y="12" width="936" height="676" rx="22" fill="#fff"/><rect x="12" y="12" width="936" height="62" rx="22" fill="#f5f6f8"/><rect x="12" y="48" width="936" height="26" rx="0" fill="#f5f6f8"/><circle cx="42" cy="43" r="7" fill="#ff6a63"/><circle cx="66" cy="43" r="7" fill="#ffbd44"/><circle cx="90" cy="43" r="7" fill="#35c965"/><rect x="284" y="27" width="405" height="31" rx="7" fill="#e9ecf0"/><text x="460" y="48" font-family="Arial, sans-serif" font-size="14" fill="#818996" font-weight="500">purvey</text><text x="850" y="49" font-family="Arial, sans-serif" font-size="22" fill="#818996" font-weight="500">↗</text><rect x="12" y="74" width="176" height="614" rx="0" fill="#f8f9fb"/><text x="36" y="112" font-family="Arial, sans-serif" font-size="25" fill="#09093b" font-weight="700">Purvey</text><text x="37" y="145" font-family="Arial, sans-serif" font-size="14" fill="#818996" font-weight="500">Àrí Studio</text><rect x="26" y="160" width="148" height="39" rx="8" fill="#e6f6f7"/><rect x="39" y="173" width="13" height="13" rx="4" fill="#36adb5"/><text x="64" y="184" font-family="Arial, sans-serif" font-size="14" fill="#147d87" font-weight="500">Overview</text><rect x="39" y="224" width="13" height="13" rx="4" fill="#c1c7d0"/><text x="64" y="235" font-family="Arial, sans-serif" font-size="14" fill="#818996" font-weight="500">Products</text><rect x="39" y="275" width="13" height="13" rx="4" fill="#c1c7d0"/><text x="64" y="286" font-family="Arial, sans-serif" font-size="14" fill="#818996" font-weight="500">Orders</text><rect x="39" y="326" width="13" height="13" rx="4" fill="#c1c7d0"/><text x="64" y="337" font-family="Arial, sans-serif" font-size="14" fill="#818996" font-weight="500">Customers</text><rect x="39" y="377" width="13" height="13" rx="4" fill="#c1c7d0"/><text x="64" y="388" font-family="Arial, sans-serif" font-size="14" fill="#818996" font-weight="500">Payments</text><text x="222" y="122" font-family="Arial, sans-serif" font-size="28" fill="#09093b" font-weight="700">Business overview</text><rect x="804" y="99" width="112" height="33" rx="8" fill="#09093b"/><rect x="824" y="112" width="71" height="7" rx="3" fill="#fff"/><rect x="220" y="155" width="220" height="102" rx="12" fill="#f7f9fb"/><text x="240" y="187" font-family="Arial, sans-serif" font-size="15" fill="#818996" font-weight="500">Sales</text><rect x="240" y="207" width="127" height="20" rx="7" fill="#cbd3dc"/><rect x="458" y="155" width="220" height="102" rx="12" fill="#f7f9fb"/><text x="478" y="187" font-family="Arial, sans-serif" font-size="15" fill="#818996" font-weight="500">Orders</text><rect x="478" y="207" width="127" height="20" rx="7" fill="#cbd3dc"/><rect x="696" y="155" width="220" height="102" rx="12" fill="#f7f9fb"/><text x="716" y="187" font-family="Arial, sans-serif" font-size="15" fill="#818996" font-weight="500">Products</text><rect x="716" y="207" width="127" height="20" rx="7" fill="#cbd3dc"/><text x="242" y="309" font-family="Arial, sans-serif" font-size="18" fill="#09093b" font-weight="700">Sales overview</text><rect x="243" y="336" width="643" height="1" rx="0" fill="#e6e9ee"/><rect x="243" y="395" width="643" height="1" rx="0" fill="#e6e9ee"/><rect x="243" y="454" width="643" height="1" rx="0" fill="#e6e9ee"/><rect x="243" y="513" width="643" height="1" rx="0" fill="#e6e9ee"/><path d="M244 485 C280 470 300 483 335 442 S400 468 450 411 S505 428 560 382 S620 397 680 359 S760 383 820 330 S858 340 887 304" fill="none" stroke="#21a4ae" stroke-width="4"/><rect x="244" y="548" width="643" height="53" rx="9" fill="#f6f8fa"/><rect x="264" y="569" width="175" height="10" rx="5" fill="#d7dde5"/></svg>