<svg xmlns="http://www.w3.org/2000/svg" viewBox="0 0 960 700" width="960" height="700"><title>Àrí Studio storefront</title><rect x="4" y="4" width="952" height="692" rx="28" fill="#c8d0da"/><rect x="11" y="11" width="938" height="678" rx="22" fill="#fff"/><rect x="11" y="11" width="938" height="59" rx="22" fill="#f5f7fa"/><rect x="11" y="43" width="938" height="27" rx="0" fill="#f5f7fa"/><circle cx="39" cy="40" r="7" fill="#ff6a63"/><circle cx="63" cy="40" r="7" fill="#ffbd44"/><circle cx="87" cy="40" r="7" fill="#35c965"/><rect x="305" y="25" width="345" height="29" rx="7" fill="#e8edf3"/><text x="444" y="45" font-family="Arial,sans-serif" font-size="13" fill="#8993a1" font-weight="500">purvey</text><text x="50" y="117" font-family="Arial,sans-serif" font-size="29" fill="#09093b" font-weight="700">Àrí Studio</text><text x="662" y="113" font-family="Arial,sans-serif" font-size="16" fill="#8993a1" font-weight="500">Shop     Collections     About</text><rect x="48" y="142" width="864" height="1" rx="0" fill="#e6ebef"/><rect x="48" y="169" width="165" height="14" rx="7" fill="#c5d1dc"/><rect x="239" y="169" width="115" height="14" rx="7" fill="#e2e8ee"/><rect x="380" y="169" width="143" height="14" rx="7" fill="#e2e8ee"/><rect x="48" y="221" width="445" height="281" rx="16" fill="#e7f3f4"/><rect x="518" y="221" width="188" height="281" rx="16" fill="#edf0f5"/><rect x="731" y="221" width="181" height="281" rx="16" fill="#f0eef5"/><rect x="81" y="255" width="183" height="19" rx="8" fill="#afd3d8"/><rect x="81" y="286" width="136" height="11" rx="5" fill="#c7dfe3"/><rect x="48" y="531" width="172" height="14" rx="7" fill="#c7d1dc"/><rect x="48" y="560" width="83" height="10" rx="5" fill="#58dce0"/><rect x="518" y="531" width="172" height="14" rx="7" fill="#c7d1dc"/><rect x="518" y="560" width="83" height="10" rx="5" fill="#58dce0"/><rect x="731" y="531" width="169" height="14" rx="7" fill="#c7d1dc"/><rect x="731" y="560" width="83" height="10" rx="5" fill="#58dce0"/><text x="49" y="633" font-family="Arial,sans-serif" font-size="23" fill="#09093b" font-weight="700">Your collection. One store link.</text></svg>